# xmcd CD database file
#
# Track frame offsets:
#	150
#	10626
#	23094
#	47385
#	60213
#	74308
#	96638
#	114461
#	132421
#	146456
#	171421
#	186185
#	208231
#	227755
#	257752
#	271658
#	292737
#	310154
#	320651
#
# Disc length: 4458 seconds
#
# Revision: 8
# Processed by: cddbd v1.5.2PL0 Copyright (c) Steve Scherf et al.
# Submitted via: CDex 1.85
#
DISCID=0c116813
DTITLE=Il Grande Blues 02 -  Le strade del blues
DYEAR=2004
DGENRE=Blues
TTITLE0=Subterranean Homesick Blues [Bob Dylan]
TTITLE1=Born Under A Bad Sing [Albert King]
TTITLE2=Mannish Boy [Muddy Waters, feat. Johnny Winter]
TTITLE3=Black Magic Woman [Fleetwood Mac]
TTITLE4=Ramblin' On My Mind [John Mayall and The Bluesbreaders, feat. Eric Clapton]
TTITLE5=When Sugar Cane Was King [Omar and The Howlers]
TTITLE6=Evil Hearted Woman [Alexis Korner]
TTITLE7=Addin' Up [Son Seals]
TTITLE8=Born In Chicago [Michael Bloomfield, feat. The Butterfield Blues Band]
TTITLE9=Six Page Letter [John Lee Hooker]
TTITLE10=Nervous [Willie Dixon, Memphis Slim]
TTITLE11=Blues On Me [Snowy White]
TTITLE12=On Top Of My Tongue [Edgar Winter, feat. Johnny Winter]
TTITLE13=When A Guitar Plays The Blues [Roy Buchanan]
TTITLE14=How Long, How Long Blues (pt. 1) [Leroy Carr and Scrapper Blackwell]
TTITLE15=Call It Stormy Monday [T-Bone Walker, feat. Gerry Mulligan]
TTITLE16=Obstacles In My Way [Walter Trout Band]
TTITLE17=Am I Wrong [Keb' Mo']
TTITLE18=Sweet Home Chicago [Robert Johnson]
EXTD=YEAR: 2004
EXTT0=
EXTT1=
EXTT2=
EXTT3=
EXTT4=
EXTT5=
EXTT6=
EXTT7=
EXTT8=
EXTT9=
EXTT10=
EXTT11=
EXTT12=
EXTT13=
EXTT14=
EXTT15=
EXTT16=
EXTT17=
EXTT18=
PLAYORDER=
